<?xml version="1.0" encoding="utf-8"?>
<!-- Generated by IcoMoon.io -->
<!DOCTYPE svg PUBLIC "-//W3C//DTD SVG 1.1//EN" "http://www.w3.org/Graphics/SVG/1.1/DTD/svg11.dtd">
<svg version="1.1" xmlns="http://www.w3.org/2000/svg" xmlns:xlink="http://www.w3.org/1999/xlink" width="20" height="20" viewBox="0 0 20 20">
<g id="icomoon-ignore">
	<line stroke-width="1" x1="" y1="" x2="" y2="" stroke="#449FDB" opacity=""></line>
</g>
	<path d="M0 15.357v-10.714q0-1.328 0.943-2.271t2.271-0.943h10.714q1.328 0 2.271 0.943t0.943 2.271v10.714q0 1.328-0.943 2.271t-2.271 0.943h-2.143v-6.786h2.266l0.335-2.5h-2.6v-1.596q0-0.603 0.313-0.926t1.071-0.324l1.473-0.011v-2.31q-1.071-0.1-2.009-0.1-1.518 0-2.433 0.898t-0.915 2.517v1.853h-2.5v2.5h2.5v6.786h-6.071q-1.328 0-2.271-0.943t-0.943-2.271z" fill="#0e76bc"></path>
</svg>
