<?xml version="1.0" encoding="utf-8"?>
<!-- Generated by IcoMoon.io -->
<!DOCTYPE svg PUBLIC "-//W3C//DTD SVG 1.1//EN" "http://www.w3.org/Graphics/SVG/1.1/DTD/svg11.dtd">
<svg version="1.1" xmlns="http://www.w3.org/2000/svg" xmlns:xlink="http://www.w3.org/1999/xlink" width="20" height="20" viewBox="0 0 20 20">
<g id="icomoon-ignore">
	<line stroke-width="1" x1="" y1="" x2="" y2="" stroke="#449FDB" opacity=""></line>
</g>
	<path d="M0 16.373v-12.746q0-0.904 0.647-1.551t1.551-0.647h12.746q0.904 0 1.551 0.647t0.647 1.551v12.746q0 0.904-0.647 1.551t-1.551 0.647h-12.746q-0.904 0-1.551-0.647t-0.647-1.551zM1.908 15.915q0 0.29 0.195 0.485t0.485 0.195h11.931q0.279 0 0.48-0.195t0.201-0.485v-7.232h-1.507q0.223 0.703 0.223 1.462 0 1.406-0.714 2.595t-1.942 1.881-2.679 0.692q-2.199 0-3.761-1.512t-1.563-3.655q0-0.759 0.223-1.462h-1.574v7.232zM5.145 9.967q0 1.384 1.010 2.36t2.427 0.977q1.429 0 2.439-0.977t1.010-2.36-1.010-2.36-2.439-0.977q-1.417 0-2.427 0.977t-1.010 2.36zM11.719 5.949q0 0.324 0.223 0.547t0.547 0.223h1.942q0.324 0 0.547-0.223t0.223-0.547v-1.842q0-0.313-0.223-0.541t-0.547-0.229h-1.942q-0.324 0-0.547 0.229t-0.223 0.541v1.842z" fill="#0e76bc"></path>
</svg>
